<?xml version="1.0" standalone="no"?>
<!DOCTYPE svg PUBLIC "-//W3C//DTD SVG 20010904//EN"
 "http://www.w3.org/TR/2001/REC-SVG-20010904/DTD/svg10.dtd">
<svg version="1.0" xmlns="http://www.w3.org/2000/svg"
 width="48.000000pt" height="48.000000pt" viewBox="0 0 48.000000 48.000000"
 preserveAspectRatio="xMidYMid meet">

<g transform="translate(0.000000,48.000000) scale(0.100000,-0.100000)"
fill="#000000" stroke="none">
<path d="M170 403 c0 -45 21 -82 51 -88 42 -9 66 2 78 37 13 38 14 61 2 53 -5
-3 -12 -1 -16 5 -4 7 -12 7 -25 0 -13 -7 -21 -7 -25 0 -4 7 -13 7 -24 0 -12
-6 -22 -5 -29 2 -9 9 -12 7 -12 -9z"/>
<path d="M238 293 c-42 -4 -48 -7 -64 -41 -10 -20 -20 -65 -22 -99 -4 -64 -15
-81 -25 -41 -5 19 3 83 17 133 3 11 -2 3 -12 -17 -9 -21 -20 -38 -24 -38 -11
0 -10 28 3 53 9 19 7 18 -10 -3 -26 -31 -44 -94 -36 -121 14 -42 51 -54 175
-54 159 0 195 24 170 114 -13 48 -78 122 -106 119 -10 -1 -40 -3 -66 -5z m42
-67 c0 -9 -7 -12 -19 -9 -10 3 -22 0 -25 -6 -4 -6 0 -11 8 -11 25 0 19 -20 -6
-21 l-23 -2 23 -4 c25 -5 30 -23 6 -23 -8 0 -12 -5 -8 -11 3 -6 15 -9 25 -6
12 3 19 0 19 -9 0 -23 -45 -16 -76 13 -20 18 -25 28 -15 31 10 3 11 6 1 12
-10 6 -6 15 15 34 30 28 75 35 75 12z"/>
</g>
</svg>
